<svg width="649" height="319" viewBox="0 0 649 319" fill="none" xmlns="http://www.w3.org/2000/svg">
<g clip-path="url(#clip0_482_2114)">
<path d="M41.6026 318.647C18.6261 318.647 -8.14173e-07 300.021 -1.81851e-06 277.044L-1.20021e-05 44.07C-1.30065e-05 21.0936 18.6261 2.46747 41.6026 2.46747L607.397 2.46744C630.374 2.46744 649 21.0935 649 44.07L649 277.044C649 300.021 630.374 318.647 607.397 318.647L41.6026 318.647Z" fill="#3A4245"/>
<path d="M41.6028 315.621C20.2974 315.621 3.02588 298.35 3.02588 277.044L3.02587 44.0701C3.02587 22.7646 20.2973 5.49314 41.6028 5.49314L607.398 5.49311C628.703 5.49311 645.975 22.7646 645.975 44.07L645.975 277.044C645.975 298.35 628.703 315.621 607.398 315.621L41.6028 315.621Z" fill="#121515"/>
<path d="M245.077 2.46753L245.077 1.71112C245.077 0.875612 246.197 0.198298 247.579 0.198298L331.832 0.198296C333.213 0.198296 334.334 0.875608 334.334 1.71112L334.334 2.46753L245.077 2.46753Z" fill="#121515"/>
<path d="M155.064 2.46753L155.064 1.71112C155.064 0.875612 156.184 0.198298 157.566 0.198298L197.19 0.198298C198.572 0.198298 199.692 0.87561 199.692 1.71112L199.692 2.46753L155.064 2.46753Z" fill="#121515"/>
<circle cx="36.6857" cy="282.717" r="10.2115" transform="rotate(-90 36.6857 282.717)" fill="#121515"/>
<path fill-rule="evenodd" clip-rule="evenodd" d="M43.8718 282.717C43.8718 278.749 40.6546 275.532 36.6859 275.532C32.7172 275.532 29.5 278.749 29.5 282.717C29.5 286.686 32.7172 289.903 36.6859 289.903C40.6546 289.903 43.8718 286.686 43.8718 282.717Z" fill="#262C2D"/>
<path fill-rule="evenodd" clip-rule="evenodd" d="M41.1772 282.717C41.1772 280.237 39.1664 278.226 36.686 278.226C34.2056 278.226 32.1948 280.237 32.1948 282.717C32.1948 285.198 34.2056 287.208 36.686 287.208C39.1664 287.208 41.1772 285.198 41.1772 282.717Z" fill="#121515"/>
<path opacity="0.4" fill-rule="evenodd" clip-rule="evenodd" d="M35.7877 282.717C35.7877 282.221 35.3855 281.819 34.8894 281.819C34.3934 281.819 33.9912 282.221 33.9912 282.717C33.9912 283.214 34.3934 283.616 34.8894 283.616C35.3855 283.616 35.7877 283.214 35.7877 282.717Z" fill="#636F73"/>
</g>
<defs>
<clipPath id="clip0_482_2114">
<rect width="318.449" height="649" fill="white" transform="translate(0 318.647) rotate(-90)"/>
</clipPath>
</defs>
</svg>
