<svg width="188" height="55" viewBox="0 0 188 55" fill="none" xmlns="http://www.w3.org/2000/svg">
<path d="M29.0228 26.6357L13.8682 42.7197C13.8696 42.7226 13.8696 42.7269 13.871 42.7297C14.3365 44.4762 15.9306 45.7615 17.8237 45.7615C18.5809 45.7615 19.2912 45.5565 19.9004 45.1978L19.9488 45.1694L37.0064 35.3268L29.0228 26.6357Z" fill="#EA4335"/>
<path d="M44.3538 23.897L44.3395 23.887L36.975 19.6183L28.6782 27.0013L37.0049 35.3252L44.3296 31.0992C45.6134 30.4046 46.486 29.051 46.486 27.491C46.486 25.9395 45.6263 24.593 44.3538 23.897Z" fill="#FBBC04"/>
<path d="M13.868 12.1928C13.7769 12.5287 13.7285 12.8817 13.7285 13.2461V41.6679C13.7285 42.0322 13.7769 42.3852 13.8694 42.7197L29.5435 27.047L13.868 12.1928Z" fill="#4285F4"/>
<path d="M29.1347 27.4568L36.9775 19.6155L19.9398 9.73729C19.3206 9.36579 18.5975 9.15229 17.8246 9.15229C15.9316 9.15229 14.3345 10.4404 13.8691 12.1883C13.8691 12.1898 13.8677 12.1912 13.8677 12.1926L29.1347 27.4568Z" fill="#34A853"/>
<path d="M68.7932 13.6969C68.7932 14.8243 68.4596 15.7217 67.7909 16.3917C67.0308 17.1882 66.0419 17.5864 64.8257 17.5864C63.6592 17.5864 62.669 17.1828 61.855 16.3742C61.0384 15.567 60.6321 14.5647 60.6321 13.37C60.6321 12.1739 61.0384 11.1729 61.855 10.3644C62.669 9.55712 63.6592 9.15215 64.8257 9.15215C65.4028 9.15215 65.9571 9.26517 66.4819 9.49119C67.0079 9.71722 67.429 10.0172 67.7452 10.3926L67.0348 11.103C66.5007 10.4653 65.7648 10.1451 64.8257 10.1451C63.9754 10.1451 63.2408 10.4437 62.6206 11.0411C62.0003 11.6398 61.6909 12.4147 61.6909 13.37C61.6909 14.3238 62.0003 15.1001 62.6206 15.6975C63.2408 16.2962 63.9754 16.5935 64.8257 16.5935C65.7271 16.5935 66.4778 16.2935 67.0806 15.6921C67.4707 15.3006 67.6954 14.7571 67.7559 14.0575H64.8257V13.0874H68.7367C68.7744 13.2987 68.7932 13.5018 68.7932 13.6969Z" fill="black"/>
<path d="M68.7932 13.6969C68.7932 14.8243 68.4596 15.7217 67.7909 16.3917C67.0308 17.1882 66.0419 17.5864 64.8257 17.5864C63.6592 17.5864 62.669 17.1828 61.855 16.3742C61.0384 15.567 60.6321 14.5647 60.6321 13.37C60.6321 12.1739 61.0384 11.1729 61.855 10.3644C62.669 9.55712 63.6592 9.15215 64.8257 9.15215C65.4028 9.15215 65.9571 9.26517 66.4819 9.49119C67.0079 9.71722 67.429 10.0172 67.7452 10.3926L67.0348 11.103C66.5007 10.4653 65.7648 10.1451 64.8257 10.1451C63.9754 10.1451 63.2408 10.4437 62.6206 11.0411C62.0003 11.6398 61.6909 12.4147 61.6909 13.37C61.6909 14.3238 62.0003 15.1001 62.6206 15.6975C63.2408 16.2962 63.9754 16.5935 64.8257 16.5935C65.7271 16.5935 66.4778 16.2935 67.0806 15.6921C67.4707 15.3006 67.6954 14.7571 67.7559 14.0575H64.8257V13.0874H68.7367C68.7744 13.2987 68.7932 13.5018 68.7932 13.6969Z" fill="black"/>
<path d="M74.9947 10.3257H71.319V12.8846H74.6341V13.8547H71.319V16.4136H74.9947V17.4065H70.2817V9.33413H74.9947V10.3257Z" fill="black"/>
<path d="M74.9947 10.3257H71.319V12.8846H74.6341V13.8547H71.319V16.4136H74.9947V17.4065H70.2817V9.33413H74.9947V10.3257Z" fill="black"/>
<path d="M79.3686 17.406H78.3313V10.3252H76.0764V9.33364H81.6235V10.3252H79.3686V17.406Z" fill="black"/>
<path d="M79.3686 17.406H78.3313V10.3252H76.0764V9.33364H81.6235V10.3252H79.3686V17.406Z" fill="black"/>
<path d="M85.637 9.33364H86.6743V17.406H85.637V9.33364Z" fill="black"/>
<path d="M91.2746 17.406H90.2373V10.3252H87.9824V9.33364H93.5295V10.3252H91.2746V17.406Z" fill="black"/>
<path d="M91.2746 17.406H90.2373V10.3252H87.9824V9.33364H93.5295V10.3252H91.2746V17.406Z" fill="black"/>
<path d="M98.8775 15.6867C99.4748 16.2922 100.205 16.5935 101.07 16.5935C101.936 16.5935 102.666 16.2922 103.263 15.6867C103.861 15.0813 104.161 14.309 104.161 13.37C104.161 12.4309 103.861 11.6573 103.263 11.0532C102.666 10.4478 101.936 10.1451 101.07 10.1451C100.205 10.1451 99.4748 10.4478 98.8775 11.0532C98.2815 11.6573 97.9814 12.4309 97.9814 13.37C97.9814 14.309 98.2815 15.0813 98.8775 15.6867ZM104.03 16.3621C103.237 17.1788 102.25 17.5864 101.07 17.5864C99.8905 17.5864 98.9044 17.1788 98.1119 16.3621C97.3182 15.5468 96.9226 14.5499 96.9226 13.37C96.9226 12.1901 97.3182 11.1918 98.1119 10.3765C98.9044 9.56115 99.8905 9.15215 101.07 9.15215C102.244 9.15215 103.227 9.5625 104.025 10.3818C104.821 11.2012 105.22 12.1968 105.22 13.37C105.22 14.5499 104.823 15.5468 104.03 16.3621Z" fill="black"/>
<path d="M98.8775 15.6867C99.4748 16.2922 100.205 16.5935 101.07 16.5935C101.936 16.5935 102.666 16.2922 103.263 15.6867C103.861 15.0813 104.161 14.309 104.161 13.37C104.161 12.4309 103.861 11.6573 103.263 11.0532C102.666 10.4478 101.936 10.1451 101.07 10.1451C100.205 10.1451 99.4748 10.4478 98.8775 11.0532C98.2815 11.6573 97.9814 12.4309 97.9814 13.37C97.9814 14.309 98.2815 15.0813 98.8775 15.6867ZM104.03 16.3621C103.237 17.1788 102.25 17.5864 101.07 17.5864C99.8905 17.5864 98.9044 17.1788 98.1119 16.3621C97.3182 15.5468 96.9226 14.5499 96.9226 13.37C96.9226 12.1901 97.3182 11.1918 98.1119 10.3765C98.9044 9.56115 99.8905 9.15215 101.07 9.15215C102.244 9.15215 103.227 9.5625 104.025 10.3818C104.821 11.2012 105.22 12.1968 105.22 13.37C105.22 14.5499 104.823 15.5468 104.03 16.3621Z" fill="black"/>
<path d="M106.675 17.406V9.33364H107.937L111.86 15.6126H111.906L111.86 14.0573V9.33364H112.899V17.406H111.816L107.711 10.8217H107.667L107.711 12.3783V17.406H106.675Z" fill="black"/>
<path d="M106.675 17.406V9.33364H107.937L111.86 15.6126H111.906L111.86 14.0573V9.33364H112.899V17.406H111.816L107.711 10.8217H107.667L107.711 12.3783V17.406H106.675Z" fill="black"/>
<path d="M148.868 40.2777H151.378V23.4589H148.868V40.2777ZM171.48 29.5172L168.602 36.8092H168.516L165.529 29.5172H162.825L167.304 39.7085L164.751 45.378H167.368L174.271 29.5172H171.48ZM157.243 38.3672C156.419 38.3672 155.273 37.9568 155.273 36.9384C155.273 35.6414 156.701 35.1436 157.934 35.1436C159.038 35.1436 159.558 35.3818 160.228 35.706C160.033 37.264 158.692 38.3672 157.243 38.3672ZM157.546 29.1499C155.728 29.1499 153.844 29.9504 153.067 31.725L155.295 32.6547C155.771 31.725 156.658 31.4209 157.589 31.4209C158.887 31.4209 160.207 32.1999 160.228 33.5857V33.7579C159.773 33.4982 158.801 33.1094 157.61 33.1094C155.209 33.1094 152.763 34.4292 152.763 36.8953C152.763 39.1462 154.732 40.5965 156.939 40.5965C158.627 40.5965 159.558 39.8391 160.142 38.9511H160.228V40.2494H162.651V33.8009C162.651 30.8155 160.423 29.1499 157.546 29.1499ZM142.03 31.5649H138.46V25.7999H142.03C143.907 25.7999 144.973 27.3538 144.973 28.6817C144.973 29.9854 143.907 31.5649 142.03 31.5649ZM141.966 23.4589H135.951V40.2777H138.46V33.9059H141.966C144.748 33.9059 147.483 31.8905 147.483 28.6817C147.483 25.4729 144.748 23.4589 141.966 23.4589ZM109.164 38.3699C107.43 38.3699 105.978 36.9182 105.978 34.9243C105.978 32.9089 107.43 31.4344 109.164 31.4344C110.876 31.4344 112.219 32.9089 112.219 34.9243C112.219 36.9182 110.876 38.3699 109.164 38.3699ZM112.047 30.459H111.96C111.396 29.7876 110.313 29.1808 108.947 29.1808C106.086 29.1808 103.463 31.694 103.463 34.9243C103.463 38.1317 106.086 40.6248 108.947 40.6248C110.313 40.6248 111.396 40.018 111.96 39.3238H112.047V40.1485C112.047 42.3374 110.876 43.5079 108.99 43.5079C107.451 43.5079 106.497 42.402 106.107 41.4697L103.918 42.3805C104.546 43.8981 106.216 45.7615 108.99 45.7615C111.938 45.7615 114.431 44.0273 114.431 39.8014V29.5266H112.047V30.459ZM116.165 40.2777H118.68V23.4575H116.165V40.2777ZM122.385 34.7292C122.32 32.5188 124.098 31.3913 125.376 31.3913C126.374 31.3913 127.219 31.8891 127.5 32.6049L122.385 34.7292ZM130.188 32.8215C129.712 31.5434 128.259 29.1808 125.29 29.1808C122.342 29.1808 119.893 31.499 119.893 34.9028C119.893 38.1102 122.32 40.6248 125.571 40.6248C128.194 40.6248 129.712 39.0211 130.34 38.0887L128.389 36.7877C127.74 37.7416 126.85 38.3699 125.571 38.3699C124.293 38.3699 123.382 37.7846 122.797 36.637L130.448 33.4713L130.188 32.8215ZM69.2312 30.9366V33.3637H75.0392C74.8657 34.7292 74.4109 35.7262 73.7181 36.4191C72.8718 37.2653 71.5493 38.1977 69.2312 38.1977C65.6538 38.1977 62.8581 35.3145 62.8581 31.7384C62.8581 28.161 65.6538 25.2792 69.2312 25.2792C71.1605 25.2792 72.5691 26.038 73.6091 27.0134L75.3218 25.3007C73.8688 23.9136 71.9408 22.8508 69.2312 22.8508C64.3326 22.8508 60.2144 26.8399 60.2144 31.7384C60.2144 36.637 64.3326 40.6248 69.2312 40.6248C71.8749 40.6248 73.8688 39.757 75.4294 38.1317C77.0345 36.528 77.5323 34.2745 77.5323 32.4528C77.5323 31.8891 77.4892 31.3698 77.4018 30.9366H69.2312ZM84.1368 38.3699C82.4026 38.3699 80.9065 36.9397 80.9065 34.9028C80.9065 32.843 82.4026 31.4344 84.1368 31.4344C85.8697 31.4344 87.3657 32.843 87.3657 34.9028C87.3657 36.9397 85.8697 38.3699 84.1368 38.3699ZM84.1368 29.1808C80.9711 29.1808 78.392 31.5864 78.392 34.9028C78.392 38.1977 80.9711 40.6248 84.1368 40.6248C87.3012 40.6248 89.8803 38.1977 89.8803 34.9028C89.8803 31.5864 87.3012 29.1808 84.1368 29.1808ZM96.6664 38.3699C94.9322 38.3699 93.4362 36.9397 93.4362 34.9028C93.4362 32.843 94.9322 31.4344 96.6664 31.4344C98.4007 31.4344 99.8954 32.843 99.8954 34.9028C99.8954 36.9397 98.4007 38.3699 96.6664 38.3699ZM96.6664 29.1808C93.5021 29.1808 90.923 31.5864 90.923 34.9028C90.923 38.1977 93.5021 40.6248 96.6664 40.6248C99.8308 40.6248 102.41 38.1977 102.41 34.9028C102.41 31.5864 99.8308 29.1808 96.6664 29.1808Z" fill="black"/>
<rect x="0.715024" y="0.715024" width="186.57" height="53.4838" rx="13.9287" stroke="black" stroke-width="1.43005"/>
</svg>
