<?xml version="1.0" encoding="UTF-8" standalone="no"?><!DOCTYPE svg PUBLIC "-//W3C//DTD SVG 1.1//EN" "http://www.w3.org/Graphics/SVG/1.1/DTD/svg11.dtd"><svg width="100%" height="100%" viewBox="0 0 461 461" version="1.1" xmlns="http://www.w3.org/2000/svg" xmlns:xlink="http://www.w3.org/1999/xlink" xml:space="preserve" xmlns:serif="http://www.serif.com/" style="fill-rule:evenodd;clip-rule:evenodd;stroke-linecap:round;stroke-linejoin:round;stroke-miterlimit:1.5;"><circle cx="230.4" cy="230.4" r="223.566" style="fill:none;stroke:#252422;stroke-opacity:0.98;stroke-width:13.67px;"/><g><g id="path2997-7"><path d="M355.973,115.747l10.915,-16.67c0,0 2.604,17.356 -5.435,36.995c-0.274,0.685 -6.896,20.324 -18.36,30.372c0.046,-0.229 -5.663,4.338 -10.344,-0c0.091,-0.457 -2.216,-3.654 -4.271,-7.308c-1.507,-0 -19.502,17.355 -19.639,17.584c-0.228,0.228 -6.257,0.228 -10.824,-5.481c-0.32,-0.228 -5.846,-9.363 -7.376,-18.725c-0.274,-0.686 -23.384,-1.142 -67.07,2.968l-43.64,4.111c0.891,-0.457 -36.286,9.819 -34.345,14.843c-0.16,-0.913 -0.822,4.111 17.241,16.671c0.069,-0.457 6.44,6.622 1.416,14.615c0,-0 -4.773,8.449 -12.194,16.442c-0.731,1.141 -3.791,4.338 -7.194,-2.056c-0.593,-0.456 -6.622,-10.048 -18.383,-7.992c0.366,-0 -9.728,5.48 -18.771,20.095c17.447,393.238 -44.165,1.142 5.823,-27.174c-0.251,-0.457 6.668,-8.45 18.109,-15.757c-0.091,0.456 3.174,-27.404 13.085,-36.766c0.411,-0.229 133.477,-26.719 148.184,-24.435c0.319,-0 5.823,-0.685 8.586,7.993c-0.251,0.456 2.535,19.639 14.547,14.615c0.342,-0.914 10.481,-5.024 19.981,-28.774c0.114,0.229 -4.019,20.324 3.288,20.781c7.308,0.457 21.238,-1.142 16.671,-26.947Z" style="fill:#2a2927;fill-rule:nonzero;"/></g><g id="path3812-8"><path d="M332.292,74.186c-0,-0 -10.802,-3.882 -8.061,-14.615c-0.183,-0.685 3.197,-9.363 8.221,-10.962c1.758,-0.913 8.106,-2.968 9.933,5.024c0.046,0.457 2.078,6.623 -1.301,15.3c-0.252,0.229 -0.16,2.969 4.727,2.741c0.16,0.457 0.114,6.394 -1.439,7.307c-0.114,0 -4.316,-2.74 -7.901,-3.425c-0.16,0.228 -2.192,7.993 -16.008,11.19c-0.069,0.456 -7.468,2.055 -13.063,2.283c0.412,0 -9.02,-2.055 -11.76,-4.339c0.068,-0.228 7.33,2.056 17.469,-2.055c-0.068,-0.228 4.842,-0.228 19.183,-8.449Z" style="fill:#2a2927;fill-rule:nonzero;"/></g><g id="path2997-7-7-8"><path d="M300.298,323.099c-0.411,1.142 -18.565,21.009 -32.472,26.262c-0.868,0.456 -9.843,7.307 -24.001,-0c0.183,-0 -10.185,-5.709 -14.866,-23.75c-0.046,0.228 -8.998,-28.545 -7.925,-52.295c-0.045,0.229 -20.506,7.765 -34.277,17.127c-0.548,0.914 -9.294,2.512 -7.17,12.104c-0,-0 -0.776,7.764 16.921,9.591c0.183,-0 21.261,-3.654 24.298,-5.481c0.114,0.228 -13.085,22.608 -20.324,26.262c0.525,0.228 -9.317,3.425 -16.077,2.74c0.754,-0 -12.811,-0.228 -16.236,-15.072c0.365,0 -1.165,-21.237 14.524,-43.388c0.319,-0.686 11.166,-16.899 38.341,-26.262c0.046,-0.457 4.727,-18.269 11.487,-24.206c2.375,0.685 -2.124,37.908 -1.827,38.364c0.32,0.457 -3.151,23.978 13.131,51.153c-0,0 6.485,13.93 24.275,7.308c-0.229,-0.914 7.992,4.339 31.239,-34.026c49.509,-49.554 7.217,26.49 0.959,33.569Z" style="fill:#2a2927;fill-rule:nonzero;"/></g><g id="path3769-4-6-7"><path d="M244.761,370.37c0.388,-0.914 6.097,-9.591 6.097,-9.591c0,-0 1.759,-2.512 2.626,1.141c0.16,0.229 7.81,13.474 7.81,13.474c0,-0 2.01,1.37 0.48,4.339c-0.388,0.913 -6.668,10.276 -6.668,10.276c-0,-0 -1.165,1.598 -3.152,-1.142c-0.707,-0.685 -8.015,-14.387 -8.015,-14.387c0,0 -1.439,-2.283 0.822,-4.11Z" style="fill:#2a2927;fill-rule:nonzero;"/></g><g id="path3769-1-0-1-4"><path d="M264.834,371.512c0.388,-0.686 6.097,-9.363 6.097,-9.363c0,-0 1.759,-2.512 2.626,1.142c0.16,0.228 7.788,13.244 7.788,13.244c-0,0 2.032,1.371 0.502,4.568c-0.388,0.685 -6.668,10.276 -6.668,10.276c-0,-0 -1.165,1.598 -3.152,-1.142c-0.708,-0.685 -8.015,-14.387 -8.015,-14.387c-0,0 -1.439,-2.283 0.822,-4.338Z" style="fill:#2a2927;fill-rule:nonzero;"/></g><g id="path3814-8-9-3"><path d="M257.878,225.82c-0.562,0 0.271,-4.74 1.491,-6.846c-0.136,-0 8.75,-8.954 19.921,-9.48c0.446,-0 8.035,-1.317 22.42,-7.637c0.948,-0 1.336,2.106 -0.465,7.11c-0.213,0.527 -14.559,6.847 -20.638,7.373c-1.104,0 -12.488,0.79 -22.729,9.48Z" style="fill:#2a2927;fill-rule:nonzero;"/></g><g id="path3816-2-5-1"><path d="M291.429,224.767c0,0 -0.677,6.847 -0.309,16.854c0.077,0.263 0.755,8.953 -4.027,12.376c-0.271,0.264 -4.202,2.107 -7.57,-5.53c-1.278,-0.263 0.348,7.637 -6.234,9.48c0.058,0.264 -8.945,0.79 -7.299,-14.22c0.039,-0.263 0.116,-7.636 3.891,-15.273c0.194,-0.264 1.646,-1.844 2.169,0.263c-0.058,1.58 -5.228,10.27 -0.968,16.064c-0.097,-0 4.085,7.9 6.505,-0.264c0.193,-0.263 -0.368,-9.216 1.529,-14.747c0.174,-0.263 1.897,-2.633 1.956,-0.526c-0.02,0.526 -3.234,10.533 2.555,15.01c0.078,0.263 3.001,3.423 4.569,-1.58c0.116,-0.79 -1.103,-5.53 -1.316,-9.743c-0.31,-0.264 3.175,-13.167 4.549,-7.901l0,-0.263Z" style="fill:#2a2927;fill-rule:nonzero;"/></g><g id="path3769-4-6-7-9"><path d="M174.106,227.644c0.389,-0.913 6.075,-9.591 6.075,-9.591c-0,0 1.758,-2.512 2.626,1.142c0.183,0.228 7.81,13.245 7.81,13.245c-0,-0 2.032,1.598 0.502,4.567c-0.388,0.913 -6.668,10.276 -6.668,10.276c0,0 -1.165,1.599 -3.151,-1.142c-0.708,-0.685 -8.016,-14.386 -8.016,-14.386c0,-0 -1.438,-2.284 0.822,-4.111Z" style="fill:#2a2927;fill-rule:nonzero;"/></g><g id="path3769-1-0-1-4-8"><path d="M194.179,228.786c0.366,-0.913 6.075,-9.363 6.075,-9.363c-0,0 1.758,-2.74 2.626,0.914c0.182,0.456 7.81,13.473 7.81,13.473c-0,-0 2.032,1.37 0.479,4.339c-0.365,0.913 -6.645,10.276 -6.645,10.276c-0,0 -1.165,1.599 -3.151,-1.142c-0.708,-0.685 -8.016,-14.386 -8.016,-14.386c0,-0 -1.461,-2.056 0.822,-4.111Z" style="fill:#2a2927;fill-rule:nonzero;"/></g></g></svg>